<?xml version="1.0" encoding="UTF-8"?>
<svg width="403px" height="111px" viewBox="0 0 403 111" version="1.1" xmlns="http://www.w3.org/2000/svg" xmlns:xlink="http://www.w3.org/1999/xlink">
    <!-- Generator: Sketch 61 (89581) - https://sketch.com -->
    <title>Fill-1</title>
    <desc>Created with Sketch.</desc>
    <g id="TEST" stroke="none" stroke-width="1" fill="none" fill-rule="evenodd" opacity="0.497837612">
        <g id="Styleguide-V2" transform="translate(-414.000000, -4123.000000)" fill="#EDEDED" fill-rule="nonzero">
            <g id="Group-2" transform="translate(255.000000, 3910.000000)">
                <path d="M511.161801,230.442752 L465.713461,282.88257 C447.917615,261.875842 412.780211,220.302576 412.780211,220.302576 C408.857125,215.698145 403.202663,213 397.209901,213 C391.243719,213 385.569926,215.649639 381.584014,220.264984 C381.584014,220.264984 346.044273,261.875842 328.109481,282.88257 C310.341422,261.875842 275.213684,220.302576 275.213684,220.302576 C271.323221,215.698145 265.601099,213 259.647,213 C253.640946,213 247.952655,215.649639 244.004197,220.264984 L159,320.260069 L191.04799,320.260069 C197.805555,320.260069 206.897398,316.055812 211.266315,310.889925 L259.531011,254.137925 C277.311151,275.172544 312.442514,316.679114 312.442514,316.679114 C316.3511,321.334476 322.067181,324 328.020072,324 C334.005586,324.020495 339.708376,321.390258 343.644751,316.760362 C343.644751,316.760362 379.194158,275.172544 397.120493,254.137925 C414.899424,275.172544 450.030788,316.679114 450.030788,316.679114 C453.965954,321.334476 459.633707,324 465.599889,324 C471.59386,324.020495 477.295442,321.390258 481.222151,316.760362 C481.222151,316.760362 544.051919,242.201815 562,221.167195 L531.546859,221.167195 C524.785669,221.167195 515.633417,225.335072 511.161801,230.442752" id="Fill-1"></path>
            </g>
        </g>
    </g>
</svg>